<svg xmlns="http://www.w3.org/2000/svg" xmlns:xlink="http://www.w3.org/1999/xlink" contentStyleType="text/css" data-diagram-type="CLASS" height="1135px" preserveAspectRatio="none" style="width:1183px;height:1135px;background:#FFFFFF;" version="1.1" viewBox="0 0 1183 1135" width="1183px" zoomAndPan="magnify"><defs/><g><!--cluster User Aggregate--><g class="cluster" data-entity="User Aggregate" data-source-line="3" data-uid="ent0002" id="cluster_User Aggregate"><rect fill="none" height="661.9" rx="2.5" ry="2.5" style="stroke:#181818;stroke-width:1;" width="641" x="7" y="7"/><text fill="#000000" font-family="sans-serif" font-size="14" font-weight="bold" lengthAdjust="spacing" textLength="123.9082" x="265.5459" y="21.9951">User Aggregate</text></g><!--cluster Vehicle Aggregate--><g class="cluster" data-entity="Vehicle Aggregate" data-source-line="35" data-uid="ent0007" id="cluster_Vehicle Aggregate"><rect fill="none" height="180.48" rx="2.5" ry="2.5" style="stroke:#181818;stroke-width:1;" width="198" x="729" y="512.86"/><text fill="#000000" font-family="sans-serif" font-size="14" font-weight="bold" lengthAdjust="spacing" textLength="145.4961" x="755.252" y="527.8551">Vehicle Aggregate</text></g><!--cluster Park Aggregate--><g class="cluster" data-entity="Park Aggregate" data-source-line="46" data-uid="ent0009" id="cluster_Park Aggregate"><rect fill="none" height="386.97" rx="2.5" ry="2.5" style="stroke:#181818;stroke-width:1;" width="184" x="736" y="742.34"/><text fill="#000000" font-family="sans-serif" font-size="14" font-weight="bold" lengthAdjust="spacing" textLength="123.7305" x="766.1348" y="757.3351">Park Aggregate</text></g><!--cluster ParkingRequest Aggregate--><g class="cluster" data-entity="ParkingRequest Aggregate" data-source-line="64" data-uid="ent0012" id="cluster_ParkingRequest Aggregate"><rect fill="none" height="164.19" rx="2.5" ry="2.5" style="stroke:#181818;stroke-width:1;" width="348" x="829" y="299.67"/><text fill="#000000" font-family="sans-serif" font-size="14" font-weight="bold" lengthAdjust="spacing" textLength="213.3018" x="896.3491" y="314.6651">ParkingRequest Aggregate</text></g><!--class User--><g class="entity" data-entity="User" data-source-line="4" data-uid="ent0003" id="entity_User"><rect fill="#F1F1F1" height="194.6719" rx="2.5" ry="2.5" style="stroke:#181818;stroke-width:0.5;" width="168.0508" x="372.97" y="42"/><ellipse cx="436.7903" cy="58" fill="#ADD1B2" rx="11" ry="11" style="stroke:#181818;stroke-width:1;"/><path d="M439.7591,63.6406 Q439.1809,63.9375 438.5403,64.0781 Q437.8997,64.2344 437.1966,64.2344 Q434.6966,64.2344 433.3684,62.5938 Q432.0559,60.9375 432.0559,57.8125 Q432.0559,54.6875 433.3684,53.0313 Q434.6966,51.375 437.1966,51.375 Q437.8997,51.375 438.5403,51.5313 Q439.1966,51.6875 439.7591,51.9844 L439.7591,54.7031 Q439.1341,54.125 438.5403,53.8594 Q437.9466,53.5781 437.3216,53.5781 Q435.9778,53.5781 435.2903,54.6563 Q434.6028,55.7188 434.6028,57.8125 Q434.6028,59.9063 435.2903,60.9844 Q435.9778,62.0469 437.3216,62.0469 Q437.9466,62.0469 438.5403,61.7813 Q439.1341,61.5 439.7591,60.9219 L439.7591,63.6406 Z " fill="#000000"/><text fill="#000000" font-family="sans-serif" font-size="14" lengthAdjust="spacing" textLength="31.9102" x="457.2903" y="62.8467">User</text><line style="stroke:#181818;stroke-width:0.5;" x1="373.97" x2="540.0208" y1="74" y2="74"/><text fill="#000000" font-family="sans-serif" font-size="14" lengthAdjust="spacing" textLength="62.3984" x="378.97" y="90.9951">-id: UUID</text><text fill="#000000" font-family="sans-serif" font-size="14" lengthAdjust="spacing" textLength="126.2393" x="378.97" y="107.292">-username: String</text><text fill="#000000" font-family="sans-serif" font-size="14" lengthAdjust="spacing" textLength="94.6094" x="378.97" y="123.5889">-email: String</text><text fill="#000000" font-family="sans-serif" font-size="14" lengthAdjust="spacing" textLength="122.7119" x="378.97" y="139.8857">-password: String</text><text fill="#000000" font-family="sans-serif" font-size="14" lengthAdjust="spacing" textLength="156.0508" x="378.97" y="156.1826">-phoneNumber: String</text><line style="stroke:#181818;stroke-width:0.5;" x1="373.97" x2="540.0208" y1="163.4844" y2="163.4844"/><text fill="#000000" font-family="sans-serif" font-size="14" lengthAdjust="spacing" textLength="56.7588" x="378.97" y="180.4795">+login()</text><text fill="#000000" font-family="sans-serif" font-size="14" lengthAdjust="spacing" textLength="124.1748" x="378.97" y="196.7764">+createAccount()</text><text fill="#000000" font-family="sans-serif" font-size="14" lengthAdjust="spacing" textLength="124.7764" x="378.97" y="213.0732">+cancelAccount()</text><text fill="#000000" font-family="sans-serif" font-size="14" lengthAdjust="spacing" textLength="153.2686" x="378.97" y="229.3701">+updateInformation()</text></g><!--class Role--><g class="entity" data-entity="Role" data-source-line="16" data-uid="ent0004" id="entity_Role"><rect fill="#F1F1F1" height="80.5938" rx="2.5" ry="2.5" style="stroke:#181818;stroke-width:0.5;" width="377.0322" x="23.48" y="350.97"/><ellipse cx="192.3482" cy="366.97" fill="#ADD1B2" rx="11" ry="11" style="stroke:#181818;stroke-width:1;"/><path d="M195.3169,372.6106 Q194.7388,372.9075 194.0982,373.0481 Q193.4575,373.2044 192.7544,373.2044 Q190.2544,373.2044 188.9263,371.5637 Q187.6138,369.9075 187.6138,366.7825 Q187.6138,363.6575 188.9263,362.0012 Q190.2544,360.345 192.7544,360.345 Q193.4575,360.345 194.0982,360.5012 Q194.7544,360.6575 195.3169,360.9544 L195.3169,363.6731 Q194.6919,363.095 194.0982,362.8294 Q193.5044,362.5481 192.8794,362.5481 Q191.5357,362.5481 190.8482,363.6262 Q190.1607,364.6887 190.1607,366.7825 Q190.1607,368.8762 190.8482,369.9544 Q191.5357,371.0169 192.8794,371.0169 Q193.5044,371.0169 194.0982,370.7512 Q194.6919,370.47 195.3169,369.8919 L195.3169,372.6106 Z " fill="#000000"/><text fill="#000000" font-family="sans-serif" font-size="14" lengthAdjust="spacing" textLength="30.7959" x="212.8482" y="371.8167">Role</text><line style="stroke:#181818;stroke-width:0.5;" x1="24.48" x2="399.5122" y1="382.97" y2="382.97"/><text fill="#000000" font-family="sans-serif" font-size="14" lengthAdjust="spacing" textLength="62.3984" x="29.48" y="399.9651">-id: UUID</text><text fill="#000000" font-family="sans-serif" font-size="14" lengthAdjust="spacing" textLength="365.0322" x="29.48" y="416.262">-name: String «CLIENTE | PARK_MANAGER | ADMIN»</text><line style="stroke:#181818;stroke-width:0.5;" x1="24.48" x2="399.5122" y1="423.5637" y2="423.5637"/></g><!--class PaymentDetails--><g class="entity" data-entity="PaymentDetails" data-source-line="21" data-uid="ent0005" id="entity_PaymentDetails"><rect fill="#F1F1F1" height="113.1875" rx="2.5" ry="2.5" style="stroke:#181818;stroke-width:0.5;" width="196.6318" x="435.68" y="334.67"/><ellipse cx="475.0595" cy="350.67" fill="#ADD1B2" rx="11" ry="11" style="stroke:#181818;stroke-width:1;"/><path d="M478.0283,356.3106 Q477.4502,356.6075 476.8095,356.7481 Q476.1689,356.9044 475.4658,356.9044 Q472.9658,356.9044 471.6377,355.2637 Q470.3252,353.6075 470.3252,350.4825 Q470.3252,347.3575 471.6377,345.7012 Q472.9658,344.045 475.4658,344.045 Q476.1689,344.045 476.8095,344.2012 Q477.4658,344.3575 478.0283,344.6544 L478.0283,347.3731 Q477.4033,346.795 476.8095,346.5294 Q476.2158,346.2481 475.5908,346.2481 Q474.247,346.2481 473.5595,347.3262 Q472.872,348.3887 472.872,350.4825 Q472.872,352.5762 473.5595,353.6544 Q474.247,354.7169 475.5908,354.7169 Q476.2158,354.7169 476.8095,354.4512 Q477.4033,354.17 478.0283,353.5919 L478.0283,356.3106 Z " fill="#000000"/><text fill="#000000" font-family="sans-serif" font-size="14" lengthAdjust="spacing" textLength="110.4551" x="494.4772" y="355.5167">PaymentDetails</text><line style="stroke:#181818;stroke-width:0.5;" x1="436.68" x2="631.3118" y1="366.67" y2="366.67"/><text fill="#000000" font-family="sans-serif" font-size="14" lengthAdjust="spacing" textLength="62.3984" x="441.68" y="383.6651">-id: UUID</text><text fill="#000000" font-family="sans-serif" font-size="14" lengthAdjust="spacing" textLength="159.9199" x="441.68" y="399.962">-type: PaymentMethod</text><text fill="#000000" font-family="sans-serif" font-size="14" lengthAdjust="spacing" textLength="102.6416" x="441.68" y="416.2589">-details: String</text><line style="stroke:#181818;stroke-width:0.5;" x1="436.68" x2="631.3118" y1="423.5606" y2="423.5606"/><text fill="#000000" font-family="sans-serif" font-size="14" lengthAdjust="spacing" textLength="184.6318" x="441.68" y="440.5557">+changePaymentDetails()</text></g><!--class PaymentMethod--><g class="entity" data-entity="PaymentMethod" data-source-line="28" data-uid="ent0006" id="entity_PaymentMethod"><rect fill="#F1F1F1" height="80.5938" rx="2.5" ry="2.5" style="stroke:#181818;stroke-width:0.5;" width="146.4268" x="460.79" y="572.3"/><ellipse cx="475.79" cy="588.3" fill="#EB937F" rx="11" ry="11" style="stroke:#181818;stroke-width:1;"/><path d="M479.8994,594.3 L472.1806,594.3 L472.1806,581.9094 L479.8994,581.9094 L479.8994,584.0656 L474.6338,584.0656 L474.6338,586.7375 L479.3994,586.7375 L479.3994,588.8938 L474.6338,588.8938 L474.6338,592.1438 L479.8994,592.1438 L479.8994,594.3 Z " fill="#000000"/><text fill="#000000" font-family="sans-serif" font-size="14" lengthAdjust="spacing" textLength="114.4268" x="489.79" y="593.1467">PaymentMethod</text><line style="stroke:#181818;stroke-width:0.5;" x1="461.79" x2="606.2168" y1="604.3" y2="604.3"/><text fill="#000000" font-family="sans-serif" font-size="14" lengthAdjust="spacing" textLength="57.4424" x="466.79" y="621.2951">-MBWay</text><text fill="#000000" font-family="sans-serif" font-size="14" lengthAdjust="spacing" textLength="38.0488" x="466.79" y="637.592">-Card</text><line style="stroke:#181818;stroke-width:0.5;" x1="461.79" x2="606.2168" y1="644.8938" y2="644.8938"/></g><!--class Vehicle--><g class="entity" data-entity="Vehicle" data-source-line="36" data-uid="ent0008" id="entity_Vehicle"><rect fill="#F1F1F1" height="129.4844" rx="2.5" ry="2.5" style="stroke:#181818;stroke-width:0.5;" width="165.2686" x="745.37" y="547.86"/><ellipse cx="798.1776" cy="563.86" fill="#ADD1B2" rx="11" ry="11" style="stroke:#181818;stroke-width:1;"/><path d="M801.1464,569.5006 Q800.5682,569.7975 799.9276,569.9381 Q799.287,570.0944 798.5839,570.0944 Q796.0839,570.0944 794.7557,568.4537 Q793.4432,566.7975 793.4432,563.6725 Q793.4432,560.5475 794.7557,558.8912 Q796.0839,557.235 798.5839,557.235 Q799.287,557.235 799.9276,557.3912 Q800.5839,557.5475 801.1464,557.8444 L801.1464,560.5631 Q800.5214,559.985 799.9276,559.7194 Q799.3339,559.4381 798.7089,559.4381 Q797.3651,559.4381 796.6776,560.5162 Q795.9901,561.5787 795.9901,563.6725 Q795.9901,565.7662 796.6776,566.8444 Q797.3651,567.9069 798.7089,567.9069 Q799.3339,567.9069 799.9276,567.6412 Q800.5214,567.36 801.1464,566.7819 L801.1464,569.5006 Z " fill="#000000"/><text fill="#000000" font-family="sans-serif" font-size="14" lengthAdjust="spacing" textLength="51.1533" x="818.6776" y="568.7067">Vehicle</text><line style="stroke:#181818;stroke-width:0.5;" x1="746.37" x2="909.6386" y1="579.86" y2="579.86"/><text fill="#000000" font-family="sans-serif" font-size="14" lengthAdjust="spacing" textLength="139.8838" x="751.37" y="596.8551">-licensePlate: String</text><text fill="#000000" font-family="sans-serif" font-size="14" lengthAdjust="spacing" textLength="96.9814" x="751.37" y="613.152">-brand: String</text><text fill="#000000" font-family="sans-serif" font-size="14" lengthAdjust="spacing" textLength="99.5928" x="751.37" y="629.4489">-model: String</text><text fill="#000000" font-family="sans-serif" font-size="14" lengthAdjust="spacing" textLength="137.3682" x="751.37" y="645.7457">-approved: Boolean</text><line style="stroke:#181818;stroke-width:0.5;" x1="746.37" x2="909.6386" y1="653.0475" y2="653.0475"/><text fill="#000000" font-family="sans-serif" font-size="14" lengthAdjust="spacing" textLength="153.2686" x="751.37" y="670.0426">+updateInformation()</text></g><!--class Park--><g class="entity" data-entity="Park" data-source-line="47" data-uid="ent0010" id="entity_Park"><rect fill="#F1F1F1" height="162.0781" rx="2.5" ry="2.5" style="stroke:#181818;stroke-width:0.5;" width="151.8701" x="752.06" y="777.34"/><ellipse cx="808.3027" cy="793.34" fill="#ADD1B2" rx="11" ry="11" style="stroke:#181818;stroke-width:1;"/><path d="M811.2714,798.9806 Q810.6933,799.2775 810.0527,799.4181 Q809.4121,799.5744 808.7089,799.5744 Q806.2089,799.5744 804.8808,797.9337 Q803.5683,796.2775 803.5683,793.1525 Q803.5683,790.0275 804.8808,788.3712 Q806.2089,786.715 808.7089,786.715 Q809.4121,786.715 810.0527,786.8712 Q810.7089,787.0275 811.2714,787.3244 L811.2714,790.0431 Q810.6464,789.465 810.0527,789.1994 Q809.4589,788.9181 808.8339,788.9181 Q807.4902,788.9181 806.8027,789.9962 Q806.1152,791.0587 806.1152,793.1525 Q806.1152,795.2462 806.8027,796.3244 Q807.4902,797.3869 808.8339,797.3869 Q809.4589,797.3869 810.0527,797.1212 Q810.6464,796.84 811.2714,796.2619 L811.2714,798.9806 Z " fill="#000000"/><text fill="#000000" font-family="sans-serif" font-size="14" lengthAdjust="spacing" textLength="30.8848" x="828.8027" y="798.1867">Park</text><line style="stroke:#181818;stroke-width:0.5;" x1="753.06" x2="902.9301" y1="809.34" y2="809.34"/><text fill="#000000" font-family="sans-serif" font-size="14" lengthAdjust="spacing" textLength="62.3984" x="758.06" y="826.3351">-id: UUID</text><text fill="#000000" font-family="sans-serif" font-size="14" lengthAdjust="spacing" textLength="95.7031" x="758.06" y="842.632">-name: String</text><text fill="#000000" font-family="sans-serif" font-size="14" lengthAdjust="spacing" textLength="111.5488" x="758.06" y="858.9289">-location: String</text><text fill="#000000" font-family="sans-serif" font-size="14" lengthAdjust="spacing" textLength="91.5742" x="758.06" y="875.2257">-capacity: int</text><text fill="#000000" font-family="sans-serif" font-size="14" lengthAdjust="spacing" textLength="139.8701" x="758.06" y="891.5226">-gateOpen: Boolean</text><line style="stroke:#181818;stroke-width:0.5;" x1="753.06" x2="902.9301" y1="898.8244" y2="898.8244"/><text fill="#000000" font-family="sans-serif" font-size="14" lengthAdjust="spacing" textLength="91.123" x="758.06" y="915.8195">+openGate()</text><text fill="#000000" font-family="sans-serif" font-size="14" lengthAdjust="spacing" textLength="92.2441" x="758.06" y="932.1164">+closeGate()</text></g><!--class ParkingSpot--><g class="entity" data-entity="ParkingSpot" data-source-line="57" data-uid="ent0011" id="entity_ParkingSpot"><rect fill="#F1F1F1" height="96.8906" rx="2.5" ry="2.5" style="stroke:#181818;stroke-width:0.5;" width="146.1006" x="754.95" y="1016.42"/><ellipse cx="783.3322" cy="1032.42" fill="#ADD1B2" rx="11" ry="11" style="stroke:#181818;stroke-width:1;"/><path d="M786.301,1038.0606 Q785.7229,1038.3575 785.0822,1038.4981 Q784.4416,1038.6544 783.7385,1038.6544 Q781.2385,1038.6544 779.9104,1037.0138 Q778.5979,1035.3575 778.5979,1032.2325 Q778.5979,1029.1075 779.9104,1027.4513 Q781.2385,1025.795 783.7385,1025.795 Q784.4416,1025.795 785.0822,1025.9513 Q785.7385,1026.1075 786.301,1026.4044 L786.301,1029.1231 Q785.676,1028.545 785.0822,1028.2794 Q784.4885,1027.9981 783.8635,1027.9981 Q782.5197,1027.9981 781.8322,1029.0763 Q781.1447,1030.1388 781.1447,1032.2325 Q781.1447,1034.3263 781.8322,1035.4044 Q782.5197,1036.4669 783.8635,1036.4669 Q784.4885,1036.4669 785.0822,1036.2013 Q785.676,1035.92 786.301,1035.3419 L786.301,1038.0606 Z " fill="#000000"/><text fill="#000000" font-family="sans-serif" font-size="14" lengthAdjust="spacing" textLength="84.3623" x="800.3061" y="1037.2667">ParkingSpot</text><line style="stroke:#181818;stroke-width:0.5;" x1="755.95" x2="900.0506" y1="1048.42" y2="1048.42"/><text fill="#000000" font-family="sans-serif" font-size="14" lengthAdjust="spacing" textLength="62.3984" x="760.95" y="1065.4151">-id: UUID</text><text fill="#000000" font-family="sans-serif" font-size="14" lengthAdjust="spacing" textLength="87.1104" x="760.95" y="1081.712">-number: int</text><text fill="#000000" font-family="sans-serif" font-size="14" lengthAdjust="spacing" textLength="134.1006" x="760.95" y="1098.0089">-available: Boolean</text><line style="stroke:#181818;stroke-width:0.5;" x1="755.95" x2="900.0506" y1="1105.3106" y2="1105.3106"/></g><!--class ParkingRequest--><g class="entity" data-entity="ParkingRequest" data-source-line="65" data-uid="ent0013" id="entity_ParkingRequest"><rect fill="#F1F1F1" height="113.1875" rx="2.5" ry="2.5" style="stroke:#181818;stroke-width:0.5;" width="315.4063" x="845.3" y="334.67"/><ellipse cx="943.7375" cy="350.67" fill="#ADD1B2" rx="11" ry="11" style="stroke:#181818;stroke-width:1;"/><path d="M946.7063,356.3106 Q946.1281,356.6075 945.4875,356.7481 Q944.8469,356.9044 944.1438,356.9044 Q941.6438,356.9044 940.3156,355.2637 Q939.0031,353.6075 939.0031,350.4825 Q939.0031,347.3575 940.3156,345.7012 Q941.6438,344.045 944.1438,344.045 Q944.8469,344.045 945.4875,344.2012 Q946.1438,344.3575 946.7063,344.6544 L946.7063,347.3731 Q946.0813,346.795 945.4875,346.5294 Q944.8938,346.2481 944.2688,346.2481 Q942.925,346.2481 942.2375,347.3262 Q941.55,348.3887 941.55,350.4825 Q941.55,352.5762 942.2375,353.6544 Q942.925,354.7169 944.2688,354.7169 Q944.8938,354.7169 945.4875,354.4512 Q946.0813,354.17 946.7063,353.5919 L946.7063,356.3106 Z " fill="#000000"/><text fill="#000000" font-family="sans-serif" font-size="14" lengthAdjust="spacing" textLength="110.0313" x="964.2375" y="355.5167">ParkingRequest</text><line style="stroke:#181818;stroke-width:0.5;" x1="846.3" x2="1159.7063" y1="366.67" y2="366.67"/><text fill="#000000" font-family="sans-serif" font-size="14" lengthAdjust="spacing" textLength="62.3984" x="851.3" y="383.6651">-id: UUID</text><text fill="#000000" font-family="sans-serif" font-size="14" lengthAdjust="spacing" textLength="134.668" x="851.3" y="399.962">-requestDate: Date</text><text fill="#000000" font-family="sans-serif" font-size="14" lengthAdjust="spacing" textLength="130.1494" x="851.3" y="416.2589">-requestPeriod: int</text><text fill="#000000" font-family="sans-serif" font-size="14" lengthAdjust="spacing" textLength="303.4063" x="851.3" y="432.5557">-state: String «approved|rejected|pending»</text><line style="stroke:#181818;stroke-width:0.5;" x1="846.3" x2="1159.7063" y1="439.8575" y2="439.8575"/></g><!--link User to Role--><g class="link" data-entity-1="User" data-entity-2="Role" data-source-line="74" data-uid="lnk14" id="link_User_Role"><path codeLine="74" d="M372.68,226.35 C331.3,268.56 283.45,317.38 250.8,350.68" fill="none" id="User-Role" style="stroke:#181818;stroke-width:1;"/><polygon fill="#000000" points="328.4998,278.8069,336.9304,274.4051,332.733,270.2904,328.4998,278.8069" style="stroke:#000000;stroke-width:1;"/><text fill="#000000" font-family="sans-serif" font-size="13" lengthAdjust="spacing" textLength="22.9785" x="341" y="279.7369">has</text><text fill="#000000" font-family="sans-serif" font-size="13" lengthAdjust="spacing" textLength="8.271" x="356.8265" y="230.5045">1</text><text fill="#000000" font-family="sans-serif" font-size="13" lengthAdjust="spacing" textLength="8.271" x="248.5868" y="339.7935">1</text></g><!--link User to Vehicle--><g class="link" data-entity-1="User" data-entity-2="Vehicle" data-source-line="75" data-uid="lnk15" id="link_User_Vehicle"><path codeLine="75" d="M541.25,163.7 C596.47,183.01 666.44,215.67 711,266.67 C729.96,288.37 781.22,453.99 809.18,547.61" fill="none" id="User-Vehicle" style="stroke:#181818;stroke-width:1;"/><polygon fill="#000000" points="791.8615,395.4266,789.095,386.3273,784.2749,389.6912,791.8615,395.4266" style="stroke:#000000;stroke-width:1;"/><text fill="#000000" font-family="sans-serif" font-size="13" lengthAdjust="spacing" textLength="22.9785" x="798" y="395.8269">has</text><text fill="#000000" font-family="sans-serif" font-size="13" lengthAdjust="spacing" textLength="8.271" x="549.1222" y="178.6107">1</text><text fill="#000000" font-family="sans-serif" font-size="13" lengthAdjust="spacing" textLength="23.0356" x="782.8652" y="536.7553">0..*</text></g><!--link User to PaymentDetails--><g class="link" data-entity-1="User" data-entity-2="PaymentDetails" data-source-line="76" data-uid="lnk16" id="link_User_PaymentDetails"><path codeLine="76" d="M486.77,236.96 C496.93,269.93 507.94,305.67 516.77,334.35" fill="none" id="User-PaymentDetails" style="stroke:#181818;stroke-width:1;"/><polygon fill="#000000" points="506.4719,280.0148,506.6179,270.5054,501.0005,272.2358,506.4719,280.0148" style="stroke:#000000;stroke-width:1;"/><text fill="#000000" font-family="sans-serif" font-size="13" lengthAdjust="spacing" textLength="22.9785" x="514" y="279.7369">has</text><text fill="#000000" font-family="sans-serif" font-size="13" lengthAdjust="spacing" textLength="8.271" x="480.6728" y="256.7518">1</text><text fill="#000000" font-family="sans-serif" font-size="13" lengthAdjust="spacing" textLength="24.8066" x="489.2572" y="323.5746">0..1</text></g><!--link PaymentDetails to PaymentMethod--><g class="link" data-entity-1="PaymentDetails" data-entity-2="PaymentMethod" data-source-line="77" data-uid="lnk17" id="link_PaymentDetails_PaymentMethod"><path codeLine="77" d="M534,448.18 C534,486.89 534,537.47 534,572.04" fill="none" id="PaymentDetails-PaymentMethod" style="stroke:#181818;stroke-width:1;"/><polygon fill="#000000" points="539,493.4264,541.9389,484.3813,536.0611,484.3813,539,493.4264" style="stroke:#000000;stroke-width:1;"/><text fill="#000000" font-family="sans-serif" font-size="13" lengthAdjust="spacing" textLength="29.7832" x="548" y="492.9269">uses</text><text fill="#000000" font-family="sans-serif" font-size="13" lengthAdjust="spacing" textLength="8.271" x="525.5295" y="468.1057">1</text><text fill="#000000" font-family="sans-serif" font-size="13" lengthAdjust="spacing" textLength="8.271" x="525.3594" y="561.1585">1</text></g><!--link User to ParkingRequest--><g class="link" data-entity-1="User" data-entity-2="ParkingRequest" data-source-line="78" data-uid="lnk18" id="link_User_ParkingRequest"><path codeLine="78" d="M541.51,151.61 C668.52,170.16 900.25,210.71 961,266.67 C979.92,284.1 990.32,310.37 996.03,334.21" fill="none" id="User-ParkingRequest" style="stroke:#181818;stroke-width:1;"/><polygon fill="#000000" points="983.6396,277.1003,976.3421,271.0014,974.1509,276.4555,983.6396,277.1003" style="stroke:#000000;stroke-width:1;"/><text fill="#000000" font-family="sans-serif" font-size="13" lengthAdjust="spacing" textLength="51.4097" x="988" y="279.7369">submits</text><text fill="#000000" font-family="sans-serif" font-size="13" lengthAdjust="spacing" textLength="8.271" x="549.1284" y="149.0929">1</text><text fill="#000000" font-family="sans-serif" font-size="13" lengthAdjust="spacing" textLength="23.0356" x="970.7808" y="323.4175">0..*</text></g><!--link User to ParkingRequest--><g class="link" data-entity-1="User" data-entity-2="ParkingRequest" data-source-line="87" data-uid="lnk24" id="link_User_ParkingRequest"><path codeLine="87" d="M541.29,166.99 C610.97,190.14 711.77,226.24 796,266.67 C837.04,286.37 875.4556,308.4764 911.9556,331.0264" fill="none" id="User-to-ParkingRequest" style="stroke:#181818;stroke-width:1;stroke-dasharray:7.0,7.0;"/><polygon fill="#181818" points="917.06,334.18,911.5057,326.0467,912.8063,331.552,907.301,332.8526,917.06,334.18" style="stroke:#181818;stroke-width:1;"/><polygon fill="#000000" points="834.5723,277.2598,827.4903,270.9119,825.1116,276.2869,834.5723,277.2598" style="stroke:#000000;stroke-width:1;"/><text fill="#000000" font-family="sans-serif" font-size="13" lengthAdjust="spacing" textLength="108.583" x="839" y="279.7369">approves/rejects</text><text fill="#000000" font-family="sans-serif" font-size="13" lengthAdjust="spacing" textLength="8.271" x="548.8895" y="182.0837">1</text><text fill="#000000" font-family="sans-serif" font-size="13" lengthAdjust="spacing" textLength="23.0356" x="882.7952" y="323.7871">0..*</text></g><!--link Vehicle to Park--><g class="link" data-entity-1="Vehicle" data-entity-2="Park" data-source-line="79" data-uid="lnk19" id="link_Vehicle_Park"><path codeLine="79" d="M828,677.65 C828,708.12 828,744.87 828,777.18" fill="none" id="Vehicle-Park" style="stroke:#181818;stroke-width:1;"/><polygon fill="#000000" points="833,722.9064,835.9389,713.8613,830.0611,713.8613,833,722.9064" style="stroke:#000000;stroke-width:1;"/><text fill="#000000" font-family="sans-serif" font-size="13" lengthAdjust="spacing" textLength="51.8477" x="842" y="722.4069">parks in</text><text fill="#000000" font-family="sans-serif" font-size="13" lengthAdjust="spacing" textLength="8.271" x="819.601" y="697.2052">1</text><text fill="#000000" font-family="sans-serif" font-size="13" lengthAdjust="spacing" textLength="24.8066" x="802.9676" y="766.353">0..1</text></g><!--link ParkingRequest to Vehicle--><g class="link" data-entity-1="ParkingRequest" data-entity-2="Vehicle" data-source-line="81" data-uid="lnk20" id="link_ParkingRequest_Vehicle"><path codeLine="81" d="M923.89,448.12 C912.75,457.94 902.04,468.64 893,479.86 C876.76,500.01 863.18,524.9 852.7,547.59" fill="none" id="ParkingRequest-Vehicle" style="stroke:#181818;stroke-width:1;"/><polygon fill="#000000" points="895.09,492.4924,902.7441,486.8474,897.9643,483.4265,895.09,492.4924" style="stroke:#000000;stroke-width:1;"/><text fill="#000000" font-family="sans-serif" font-size="13" lengthAdjust="spacing" textLength="61.9722" x="907" y="492.9269">relates to</text><text fill="#000000" font-family="sans-serif" font-size="13" lengthAdjust="spacing" textLength="8.271" x="905.7771" y="468.0384">1</text><text fill="#000000" font-family="sans-serif" font-size="13" lengthAdjust="spacing" textLength="8.271" x="846.9784" y="536.7331">1</text></g><!--link ParkingRequest to Park--><g class="link" data-entity-1="ParkingRequest" data-entity-2="Park" data-source-line="82" data-uid="lnk21" id="link_ParkingRequest_Park"><path codeLine="82" d="M994.87,448.15 C984.39,511.43 963.1,616.72 927,701.34 C915.98,727.16 900.93,753.56 885.89,777.13" fill="none" id="ParkingRequest-Park" style="stroke:#181818;stroke-width:1;"/><polygon fill="#000000" points="987.4277,617.4128,993.0619,609.7507,987.4822,607.9023,987.4277,617.4128" style="stroke:#000000;stroke-width:1;"/><text fill="#000000" font-family="sans-serif" font-size="13" lengthAdjust="spacing" textLength="61.9722" x="998" y="617.1669">relates to</text><text fill="#000000" font-family="sans-serif" font-size="13" lengthAdjust="spacing" textLength="8.271" x="985.4078" y="468.0721">1</text><text fill="#000000" font-family="sans-serif" font-size="13" lengthAdjust="spacing" textLength="8.271" x="882.7021" y="766.2986">1</text></g><!--link Park to ParkingSpot--><g class="link" data-entity-1="Park" data-entity-2="ParkingSpot" data-source-line="84" data-uid="lnk22" id="link_Park_ParkingSpot"><path codeLine="84" d="M828,939.9 C828,965.72 828,993.48 828,1016.16" fill="none" id="Park-ParkingSpot" style="stroke:#181818;stroke-width:1;"/><polygon fill="#000000" points="833,982.9864,835.9389,973.9413,830.0611,973.9413,833,982.9864" style="stroke:#000000;stroke-width:1;"/><text fill="#000000" font-family="sans-serif" font-size="13" lengthAdjust="spacing" textLength="22.9785" x="842" y="982.4869">has</text><text fill="#000000" font-family="sans-serif" font-size="13" lengthAdjust="spacing" textLength="8.271" x="819.6683" y="959.6228">1</text><text fill="#000000" font-family="sans-serif" font-size="13" lengthAdjust="spacing" textLength="23.0356" x="803.3853" y="1005.3324">0..*</text></g><!--link User to Park--><g class="link" data-entity-1="User" data-entity-2="Park" data-source-line="86" data-uid="lnk23" id="link_User_Park"><path codeLine="86" d="M541.47,187.14 C580.4,212.98 623.71,248.61 650,291.67 C746.63,449.93 660.58,529 729,701.34 C739.3,727.28 750.8025,748.552 765.7725,772.012" fill="none" id="User-to-Park" style="stroke:#181818;stroke-width:1;stroke-dasharray:7.0,7.0;"/><polygon fill="#181818" points="769,777.07,767.5307,767.3314,766.3104,772.855,760.7867,771.6347,769,777.07" style="stroke:#181818;stroke-width:1;"/><polygon fill="#000000" points="706.7904,493.0949,706.2956,483.5972,700.8075,485.7019,706.7904,493.0949" style="stroke:#000000;stroke-width:1;"/><text fill="#000000" font-family="sans-serif" font-size="13" lengthAdjust="spacing" textLength="59.8584" x="714" y="492.9269">manages</text><text fill="#000000" font-family="sans-serif" font-size="13" lengthAdjust="spacing" textLength="8.271" x="549.0849" y="203.9653">1</text><text fill="#000000" font-family="sans-serif" font-size="13" lengthAdjust="spacing" textLength="23.0356" x="739.7231" y="766.2333">0..*</text></g><!--link User to User--><g class="link" data-entity-1="User" data-entity-2="User" data-source-line="88" data-uid="lnk25" id="link_User_User"><path codeLine="88" d="M541.52,114.37 C561.37,116.42 576.03,124.74 576.03,139.33 C576.03,153.93 567.3383,161.6336 547.4883,163.6836" fill="none" id="User-to-User" style="stroke:#181818;stroke-width:1;stroke-dasharray:7.0,7.0;"/><polygon fill="#181818" points="541.52,164.3,550.8833,167.3543,546.4935,163.7864,550.0615,159.3966,541.52,164.3" style="stroke:#181818;stroke-width:1;"/><polygon fill="#000000" points="581.5436,144.37,583.5378,135.0708,577.6911,135.6746,581.5436,144.37" style="stroke:#000000;stroke-width:1;"/><text fill="#000000" font-family="sans-serif" font-size="13" lengthAdjust="spacing" textLength="48.3247" x="595.03" y="143.8969">creates</text><text fill="#000000" font-family="sans-serif" font-size="13" lengthAdjust="spacing" textLength="8.271" x="549.1392" y="108.6526">1</text><text fill="#000000" font-family="sans-serif" font-size="13" lengthAdjust="spacing" textLength="23.0356" x="548.8732" y="162.7091">1..*</text></g><!--SRC=[XLJRZjem47tFLunuwKtGtTTeXPHTq0grK0IbVQoCCmqkYPtQpbQqo_Vi5_GBziSwv4RiXlObiMVEp9oPOzliXSoPPXdmb1aJMQl5jh0uuqgknK-4go3Go2sJIOems1ZK42M9neHP7C2l0Af0A3sdBS1Gn25iDhD9jIl88rc68QmfkKmgAsPCfAuffpm_b8uzwqv9N1JP5hNZU9EgHCYNhweDrqY48ivL8MrhP99ZwXcBF2RaJ7vLEcDMg2h5CMWxMIdgjBUJRXTmStFtVZPTV9p28ooZrRilysWHtKzNj8qcyzbYF7RJBjaXGsadQAbnqr_07d8gK2FdQ7SghXnn5UKEWEz85NJpdfj1MMHkggOcp6y_iqEzlcCwhaAEZjAVS2SuBNh5RfnrmbHmb0QNAS5SyRQQIK_FJCNe2S_oNAi79E2jek4p-M-bY6YNwPBfVJ_DqlDV9UiU52zhk5RESiQ5FOGWfArCfo8VSfGUMKMcUtArPozL1bi3KJvJekphNDaBpEgJtjPZ3wGhswROBNZqrAhJhl1xWSPUdaO7qrjTLyv9AUJfwvYNg8MAEzoCxIXEDw8Hyb7ZDo972vfAJBxwCX3f5x32b3q_FVz64vIFnk1w0CDX-IklNWWxPc3iEgz6ezU3zjnTWj3AksODqZDtQhfN90HwhYvKzmOOWYcscR0dT4FCvqBdBmHwN_U6XaQumClHuN7kJUFf8XcmgYH-AQ3Exg1BU3_jyiWrupYtDngDkq12P4oon9s11tA6K6jktbQQ_nrtNSQLjX2gTvf0Vm00]--></g></svg>